{"accessors" : [{"bufferView" : 0, "byteOffset" : 0, "componentType" : 5123, "count" : 52146, "type" : "SCALAR", "max" : [52145], "min" : [0]}, {"bufferView" : 1, "byteOffset" : 0, "componentType" : 5126, "count" : 52146, "type" : "VEC3", "max" : [3.43351411819458, 3, 2], "min" : [-2.999000072479248, 0, -2], "name" : "POSITION"}, {"bufferView" : 1, "byteOffset" : 12, "componentType" : 5126, "count" : 52146, "type" : "VEC3", "max" : [0.9995933175086975, 1.0000044107437134, 0.9991903901100159], "min" : [-0.9994155168533325, -1.0000044107437134, -0.9993427395820618], "name" : "NORMAL"}], "asset" : {"generator" : "Aspose.3D 24.1.0", "version" : "2.0"}, "buffers" : [{"uri" : "data:application/octet-stream;base64,", "byteLength" : 1355804}], "bufferViews" : [{"buffer" : 0, "byteOffset" : 0, "byteLength" : 104292, "target" : 34963}, {"buffer" : 0, "byteOffset" : 104296, "byteLength" : 1251504, "byteStride" : 24, "target" : 34962}], "meshes" : [{"primitives" : [{"attributes" : {"POSITION" : 1, "NORMAL" : 2}, "indices" : 0, "mode" : 4}], "name" : "teapotouts*"}], "nodes" : [{"mesh" : 0, "name" : "teapotouts*"}], "scene" : 0, "scenes" : [{"nodes" : [0]}]}